<svg width="353" height="350" viewBox="0 0 353 350" fill="none" xmlns="http://www.w3.org/2000/svg">
<path d="M0 25C0 11.1929 11.1929 0 25 0H158.536H264.382C274.522 0 283.657 6.12439 287.509 15.504L349.101 165.504C351.599 171.588 351.599 178.412 349.101 184.496L287.509 334.496C283.657 343.876 274.522 350 264.382 350H237.803H158.536H25C11.1929 350 0 338.807 0 325V25Z" fill="#05A552"/>
<path d="M212 127.5C212 154.286 190.286 176 163.5 176C136.714 176 115 154.286 115 127.5C115 100.714 136.714 79 163.5 79C190.286 79 212 100.714 212 127.5Z" fill="#141414"/>
<path d="M88 213C88 201.954 96.9543 193 108 193H218C229.046 193 238 201.954 238 213V218C238 246.719 214.719 270 186 270H140C111.281 270 88 246.719 88 218V213Z" fill="#141414"/>
</svg>
