<svg width="353" height="350" viewBox="0 0 353 350" fill="none" xmlns="http://www.w3.org/2000/svg">
<path d="M0 25C0 11.1929 11.1929 0 25 0H158.536H264.382C274.522 0 283.657 6.12439 287.509 15.504L349.101 165.504C351.599 171.588 351.599 178.412 349.101 184.496L287.509 334.496C283.657 343.876 274.522 350 264.382 350H237.803H158.536H25C11.1929 350 0 338.807 0 325V25Z" fill="#FF6D39"/>
<path d="M162.397 258.2C208.045 258.2 245.05 221.195 245.05 175.547C245.05 129.9 208.045 92.8947 162.397 92.8947C116.749 92.8947 79.7445 129.9 79.7445 175.547C79.7445 221.195 116.749 258.2 162.397 258.2ZM205.639 176.095C205.639 199.674 186.524 218.789 162.945 218.789C139.365 218.789 120.25 199.674 120.25 176.095C120.25 152.515 139.365 133.4 162.945 133.4C186.524 133.4 205.639 152.515 205.639 176.095Z" fill="#141414"/>
<path d="M138.93 74.6463C139.536 72.4899 141.503 71 143.743 71H179.957C182.197 71 184.164 72.4899 184.77 74.6463L191.81 99.6779C192.707 102.867 190.31 106.032 186.997 106.032H136.703C133.389 106.032 130.992 102.867 131.889 99.6779L138.93 74.6463Z" fill="#141414"/>
<path d="M138.93 275.354C139.536 277.51 141.503 279 143.743 279H179.957C182.197 279 184.164 277.51 184.77 275.354L191.81 250.322C192.707 247.133 190.31 243.968 186.997 243.968H136.703C133.389 243.968 130.992 247.133 131.889 250.322L138.93 275.354Z" fill="#141414"/>
<path d="M260.476 145.328C262.04 143.724 262.347 141.276 261.227 139.336L243.12 107.974C242 106.034 239.726 105.076 237.555 105.629L212.357 112.048C209.147 112.866 207.605 116.523 209.262 119.393L234.409 162.949C236.065 165.818 240.004 166.312 242.318 163.941L260.476 145.328Z" fill="#141414"/>
<path d="M65.4211 145.328C63.8569 143.724 63.5499 141.276 64.67 139.336L82.777 107.974C83.897 106.034 86.1706 105.076 88.3414 105.629L113.539 112.048C116.75 112.866 118.292 116.523 116.635 119.393L91.4881 162.949C89.8315 165.818 85.8927 166.312 83.579 163.941L65.4211 145.328Z" fill="#141414"/>
<path d="M65.4211 204.906C63.8569 206.509 63.5499 208.957 64.67 210.897L82.777 242.259C83.897 244.199 86.1706 245.158 88.3414 244.605L113.539 238.186C116.75 237.368 118.292 233.71 116.635 230.84L91.4881 187.284C89.8315 184.415 85.8927 183.921 83.579 186.293L65.4211 204.906Z" fill="#141414"/>
<path d="M260.476 204.906C262.04 206.509 262.347 208.957 261.227 210.897L243.12 242.259C242 244.199 239.726 245.158 237.555 244.605L212.357 238.186C209.147 237.368 207.605 233.71 209.262 230.84L234.409 187.284C236.065 184.415 240.004 183.921 242.318 186.293L260.476 204.906Z" fill="#141414"/>
</svg>
