<svg width="353" height="350" viewBox="0 0 353 350" fill="none" xmlns="http://www.w3.org/2000/svg">
<rect width="353" height="350" rx="25" fill="#05A552"/>
<path d="M226 127.5C226 154.286 204.286 176 177.5 176C150.714 176 129 154.286 129 127.5C129 100.714 150.714 79 177.5 79C204.286 79 226 100.714 226 127.5Z" fill="#141414"/>
<path d="M102 213C102 201.954 110.954 193 122 193H232C243.046 193 252 201.954 252 213V218C252 246.719 228.719 270 200 270H154C125.281 270 102 246.719 102 218V213Z" fill="#141414"/>
</svg>
