<svg width="352" height="350" viewBox="0 0 352 350" fill="none" xmlns="http://www.w3.org/2000/svg">
<rect width="352" height="350" rx="175" fill="#7A78FF"/>
<path fill-rule="evenodd" clip-rule="evenodd" d="M59 140C59 137.239 61.2386 135 64 135H288C290.761 135 293 137.239 293 140V265C293 267.761 290.761 270 288 270H90C72.8792 270 59 256.121 59 239V140ZM97 202L125.672 168.158C126.831 166.789 128.535 166 130.329 166C135.527 166 138.346 172.083 134.986 176.05L113 202L134.791 227.006C138.192 230.909 135.42 237 130.244 237C128.501 237 126.843 236.246 125.697 234.931L97 202ZM200.261 163.398L167.132 243.954C165.462 248.014 160.817 249.952 156.757 248.282C152.697 246.612 150.759 241.967 152.429 237.907L185.558 157.351C187.228 153.291 191.873 151.354 195.933 153.023C199.993 154.693 201.931 159.338 200.261 163.398ZM255.5 202L226.829 168.158C225.669 166.789 223.966 166 222.171 166C216.973 166 214.154 172.083 217.514 176.05L239.5 202L217.709 227.006C214.308 230.909 217.08 237 222.256 237C223.999 237 225.658 236.246 226.803 234.931L255.5 202Z" fill="#141414"/>
<path d="M293 113C293 115.761 290.761 118 288 118H64C61.2386 118 59 115.761 59 113V84C59 81.2386 61.2386 79 64 79H262C279.121 79 293 92.8792 293 110V113Z" fill="#141414"/>
</svg>
