<svg width="353" height="350" viewBox="0 0 353 350" fill="none" xmlns="http://www.w3.org/2000/svg">
<rect width="353" height="350" rx="25" fill="#FFC413"/>
<path d="M76 109.5C76 92.6553 89.6553 79 106.5 79H246.5C263.345 79 277 92.6553 277 109.5V136C277 136 262.038 123.573 251.875 121.543C242.252 119.622 226.75 119.065 226.75 119.065H126.25C126.25 119.065 110.748 119.622 101.125 121.543C90.9619 123.573 76 136 76 136V109.5Z" fill="#141414"/>
<path fill-rule="evenodd" clip-rule="evenodd" d="M113 130C89.804 130 71 148.804 71 172V229C71 252.196 89.804 271 113 271H240C263.196 271 282 252.196 282 229V172C282 148.804 263.196 130 240 130H113ZM173.5 220H147.5C142.253 220 138 224.253 138 229.5C138 234.747 142.253 239 147.5 239H173.5C178.747 239 183 234.747 183 229.5C183 224.253 178.747 220 173.5 220ZM171.5 192H219.5C224.747 192 229 196.253 229 201.5C229 206.747 224.747 211 219.5 211H171.5C166.253 211 162 206.747 162 201.5C162 196.253 166.253 192 171.5 192ZM159.5 164H133.5C128.253 164 124 168.253 124 173.5C124 178.747 128.253 183 133.5 183H159.5C164.747 183 169 178.747 169 173.5C169 168.253 164.747 164 159.5 164Z" fill="#141414"/>
</svg>
