<svg width="350" height="350" viewBox="0 0 350 350" fill="none" xmlns="http://www.w3.org/2000/svg">
<rect width="350" height="350" rx="175" fill="#478BFF"/>
<path d="M84.5864 110.893L111.511 83.9681C115.416 80.0629 121.748 80.0629 125.653 83.9681L130.884 89.1985C131.349 89.6642 131.899 90.0434 132.347 90.5258C133.048 91.2794 133.38 92.4478 131.584 94.2444L123.084 102.744C118.43 107.399 123.707 112.968 128.507 108.168L137.507 99.1679C138.174 98.5013 139.907 98.2223 141.507 99.8223L149.084 107.399C150.084 108.399 151.484 110.344 149.084 112.744C146.684 115.144 144.084 117.09 140.584 121.244C137.084 125.399 141.507 128.878 144.863 125.523L153.641 116.744C154.622 115.911 157.084 115.399 159.084 117.399L160.792 119.106C164.697 123.012 164.697 129.343 160.792 133.249L133.867 160.173C129.961 164.079 123.63 164.079 119.725 160.173L84.5864 125.035C80.6811 121.13 80.6811 114.798 84.5864 110.893Z" fill="#141414"/>
<path d="M238.859 265.59L265.784 238.665C269.689 234.76 269.689 228.428 265.784 224.523L260.553 219.293C260.088 218.827 259.708 218.278 259.226 217.829C258.472 217.129 257.304 216.796 255.507 218.593L247.007 227.093C242.353 231.747 236.784 226.469 241.584 221.669L250.584 212.669C251.25 212.002 251.529 210.269 249.929 208.669L242.353 201.093C241.353 200.093 239.407 198.693 237.007 201.093C234.607 203.493 232.662 206.093 228.507 209.593C224.353 213.093 220.874 208.669 224.229 205.314L233.007 196.535C233.841 195.554 234.353 193.093 232.353 191.093L230.645 189.385C226.74 185.48 220.408 185.48 216.503 189.385L189.578 216.31C185.673 220.215 185.673 226.547 189.578 230.452L224.717 265.59C228.622 269.495 234.954 269.495 238.859 265.59Z" fill="#141414"/>
<path d="M81.0074 262.879C80.6349 259.225 94.4783 217.29 98.2733 210.984C100.735 206.894 106.918 202.339 106.918 202.339L198.478 110.78C200.431 108.827 203.596 108.827 205.549 110.78L238.336 143.567C240.289 145.52 240.289 148.686 238.336 150.638L146.777 242.198C146.777 242.198 142.225 248.384 138.132 250.843C131.772 254.663 89.6975 268.297 86.0074 267.879C83.2636 267.567 81.2874 265.626 81.0074 262.879Z" fill="#141414"/>
<path d="M213.043 103.286C211.09 101.333 211.09 98.1676 213.043 96.215L222.4 86.8579C230.211 79.0474 242.874 79.0474 250.684 86.8579L262.259 98.4321C270.069 106.243 270.069 118.906 262.259 126.716L252.902 136.073C250.949 138.026 247.783 138.026 245.83 136.073L213.043 103.286Z" fill="#141414"/>
</svg>
