<svg width="352" height="350" viewBox="0 0 352 350" fill="none" xmlns="http://www.w3.org/2000/svg">
<rect width="352" height="350" rx="25" fill="#FFC413"/>
<path d="M85.5864 110.893L112.511 83.9681C116.416 80.0629 122.748 80.0629 126.653 83.9681L131.884 89.1985C132.349 89.6642 132.899 90.0434 133.347 90.5258C134.048 91.2794 134.38 92.4478 132.584 94.2444L124.084 102.744C119.43 107.399 124.707 112.968 129.507 108.168L138.507 99.1679C139.174 98.5013 140.907 98.2223 142.507 99.8223L150.084 107.399C151.084 108.399 152.484 110.344 150.084 112.744C147.684 115.144 145.084 117.09 141.584 121.244C138.084 125.399 142.507 128.878 145.863 125.523L154.641 116.744C155.622 115.911 158.084 115.399 160.084 117.399L161.792 119.106C165.697 123.012 165.697 129.343 161.792 133.249L134.867 160.173C130.961 164.079 124.63 164.079 120.725 160.173L85.5864 125.035C81.6811 121.13 81.6811 114.798 85.5864 110.893Z" fill="#141414"/>
<path d="M239.859 265.59L266.784 238.665C270.689 234.76 270.689 228.428 266.784 224.523L261.553 219.293C261.088 218.827 260.708 218.278 260.226 217.829C259.472 217.129 258.304 216.796 256.507 218.593L248.007 227.093C243.353 231.747 237.784 226.469 242.584 221.669L251.584 212.669C252.25 212.002 252.529 210.269 250.929 208.669L243.353 201.093C242.353 200.093 240.407 198.693 238.007 201.093C235.607 203.493 233.662 206.093 229.507 209.593C225.353 213.093 221.874 208.669 225.229 205.314L234.007 196.535C234.841 195.554 235.353 193.093 233.353 191.093L231.645 189.385C227.74 185.48 221.408 185.48 217.503 189.385L190.578 216.31C186.673 220.215 186.673 226.547 190.578 230.452L225.717 265.59C229.622 269.495 235.954 269.495 239.859 265.59Z" fill="#141414"/>
<path d="M82.0074 262.879C81.6349 259.225 95.4783 217.29 99.2733 210.984C101.735 206.894 107.918 202.339 107.918 202.339L199.478 110.78C201.431 108.827 204.596 108.827 206.549 110.78L239.336 143.567C241.289 145.52 241.289 148.686 239.336 150.638L147.777 242.198C147.777 242.198 143.225 248.384 139.132 250.843C132.772 254.663 90.6975 268.297 87.0074 267.879C84.2636 267.567 82.2874 265.626 82.0074 262.879Z" fill="#141414"/>
<path d="M214.043 103.286C212.09 101.333 212.09 98.1676 214.043 96.215L223.4 86.8579C231.211 79.0474 243.874 79.0474 251.684 86.8579L263.259 98.4321C271.069 106.243 271.069 118.906 263.259 126.716L253.902 136.073C251.949 138.026 248.783 138.026 246.83 136.073L214.043 103.286Z" fill="#141414"/>
</svg>
