<svg width="350" height="350" viewBox="0 0 350 350" fill="none" xmlns="http://www.w3.org/2000/svg">
<rect width="350" height="350" rx="175" fill="#478BFF"/>
<path d="M224 127.5C224 154.286 202.286 176 175.5 176C148.714 176 127 154.286 127 127.5C127 100.714 148.714 79 175.5 79C202.286 79 224 100.714 224 127.5Z" fill="#141414"/>
<path d="M100 213C100 201.954 108.954 193 120 193H230C241.046 193 250 201.954 250 213V218C250 246.719 226.719 270 198 270H152C123.281 270 100 246.719 100 218V213Z" fill="#141414"/>
</svg>
