<svg width="353" height="350" viewBox="0 0 353 350" fill="none" xmlns="http://www.w3.org/2000/svg">
<path d="M0 25C0 11.1929 11.1929 0 25 0H158.536H264.382C274.522 0 283.657 6.12439 287.509 15.504L349.101 165.504C351.599 171.588 351.599 178.412 349.101 184.496L287.509 334.496C283.657 343.876 274.522 350 264.382 350H237.803H158.536H25C11.1929 350 0 338.807 0 325V25Z" fill="#FF6D39"/>
<path d="M53 109.5C53 92.6553 66.6553 79 83.5 79H223.5C240.345 79 254 92.6553 254 109.5V136C254 136 239.038 123.573 228.875 121.543C219.252 119.622 203.75 119.065 203.75 119.065H103.25C103.25 119.065 87.7484 119.622 78.125 121.543C67.9619 123.573 53 136 53 136V109.5Z" fill="#141414"/>
<path fill-rule="evenodd" clip-rule="evenodd" d="M90 130C66.804 130 48 148.804 48 172V229C48 252.196 66.804 271 90 271H217C240.196 271 259 252.196 259 229V172C259 148.804 240.196 130 217 130H90ZM150.5 220H124.5C119.253 220 115 224.253 115 229.5C115 234.747 119.253 239 124.5 239H150.5C155.747 239 160 234.747 160 229.5C160 224.253 155.747 220 150.5 220ZM148.5 192H196.5C201.747 192 206 196.253 206 201.5C206 206.747 201.747 211 196.5 211H148.5C143.253 211 139 206.747 139 201.5C139 196.253 143.253 192 148.5 192ZM136.5 164H110.5C105.253 164 101 168.253 101 173.5C101 178.747 105.253 183 110.5 183H136.5C141.747 183 146 178.747 146 173.5C146 168.253 141.747 164 136.5 164Z" fill="#141414"/>
</svg>
