<svg width="350" height="350" viewBox="0 0 350 350" fill="none" xmlns="http://www.w3.org/2000/svg">
<rect width="350" height="350" rx="175" fill="#7A78FF"/>
<path d="M174.397 258.2C220.045 258.2 257.05 221.195 257.05 175.547C257.05 129.9 220.045 92.8947 174.397 92.8947C128.749 92.8947 91.7445 129.9 91.7445 175.547C91.7445 221.195 128.749 258.2 174.397 258.2ZM217.639 176.095C217.639 199.674 198.524 218.789 174.945 218.789C151.365 218.789 132.25 199.674 132.25 176.095C132.25 152.515 151.365 133.4 174.945 133.4C198.524 133.4 217.639 152.515 217.639 176.095Z" fill="#141414"/>
<path d="M150.93 74.6463C151.536 72.4899 153.503 71 155.743 71H191.957C194.197 71 196.164 72.4899 196.77 74.6463L203.81 99.6779C204.707 102.867 202.31 106.032 198.997 106.032H148.703C145.389 106.032 142.992 102.867 143.889 99.6779L150.93 74.6463Z" fill="#141414"/>
<path d="M150.93 275.354C151.536 277.51 153.503 279 155.743 279H191.957C194.197 279 196.164 277.51 196.77 275.354L203.81 250.322C204.707 247.133 202.31 243.968 198.997 243.968H148.703C145.389 243.968 142.992 247.133 143.889 250.322L150.93 275.354Z" fill="#141414"/>
<path d="M272.476 145.328C274.04 143.724 274.347 141.276 273.227 139.336L255.12 107.974C254 106.034 251.726 105.076 249.555 105.629L224.357 112.048C221.147 112.866 219.605 116.523 221.262 119.393L246.409 162.949C248.065 165.818 252.004 166.312 254.318 163.941L272.476 145.328Z" fill="#141414"/>
<path d="M77.4211 145.328C75.8569 143.724 75.5499 141.276 76.67 139.336L94.777 107.974C95.897 106.034 98.1706 105.076 100.341 105.629L125.539 112.048C128.75 112.866 130.292 116.523 128.635 119.393L103.488 162.949C101.831 165.818 97.8927 166.312 95.579 163.941L77.4211 145.328Z" fill="#141414"/>
<path d="M77.4211 204.906C75.8569 206.509 75.5499 208.957 76.67 210.897L94.777 242.259C95.897 244.199 98.1706 245.158 100.341 244.605L125.539 238.186C128.75 237.368 130.292 233.71 128.635 230.84L103.488 187.284C101.831 184.415 97.8927 183.921 95.579 186.293L77.4211 204.906Z" fill="#141414"/>
<path d="M272.476 204.906C274.04 206.509 274.347 208.957 273.227 210.897L255.12 242.259C254 244.199 251.726 245.158 249.555 244.605L224.357 238.186C221.147 237.368 219.605 233.71 221.262 230.84L246.409 187.284C248.065 184.415 252.004 183.921 254.318 186.293L272.476 204.906Z" fill="#141414"/>
</svg>
