<svg width="350" height="350" viewBox="0 0 350 350" fill="none" xmlns="http://www.w3.org/2000/svg">
<rect width="350" height="350" rx="175" fill="#FFC413"/>
<path d="M75 109.5C75 92.6553 88.6553 79 105.5 79H245.5C262.345 79 276 92.6553 276 109.5V136C276 136 261.038 123.573 250.875 121.543C241.252 119.622 225.75 119.065 225.75 119.065H125.25C125.25 119.065 109.748 119.622 100.125 121.543C89.9619 123.573 75 136 75 136V109.5Z" fill="#141414"/>
<path fill-rule="evenodd" clip-rule="evenodd" d="M112 130C88.804 130 70 148.804 70 172V229C70 252.196 88.804 271 112 271H239C262.196 271 281 252.196 281 229V172C281 148.804 262.196 130 239 130H112ZM172.5 220H146.5C141.253 220 137 224.253 137 229.5C137 234.747 141.253 239 146.5 239H172.5C177.747 239 182 234.747 182 229.5C182 224.253 177.747 220 172.5 220ZM170.5 192H218.5C223.747 192 228 196.253 228 201.5C228 206.747 223.747 211 218.5 211H170.5C165.253 211 161 206.747 161 201.5C161 196.253 165.253 192 170.5 192ZM158.5 164H132.5C127.253 164 123 168.253 123 173.5C123 178.747 127.253 183 132.5 183H158.5C163.747 183 168 178.747 168 173.5C168 168.253 163.747 164 158.5 164Z" fill="#141414"/>
</svg>
