<svg width="353" height="350" viewBox="0 0 353 350" fill="none" xmlns="http://www.w3.org/2000/svg">
<path d="M0 25C0 11.1929 11.1929 0 25 0H158.536H264.382C274.522 0 283.657 6.12439 287.509 15.504L349.101 165.504C351.599 171.588 351.599 178.412 349.101 184.496L287.509 334.496C283.657 343.876 274.522 350 264.382 350H237.803H158.536H25C11.1929 350 0 338.807 0 325V25Z" fill="#7A78FF"/>
<path fill-rule="evenodd" clip-rule="evenodd" d="M41 140C41 137.239 43.2386 135 46 135H270C272.761 135 275 137.239 275 140V265C275 267.761 272.761 270 270 270H72C54.8792 270 41 256.121 41 239V140ZM79 202L107.672 168.158C108.831 166.789 110.535 166 112.329 166C117.527 166 120.346 172.083 116.986 176.05L95 202L116.791 227.006C120.192 230.909 117.42 237 112.244 237C110.501 237 108.843 236.246 107.697 234.931L79 202ZM182.261 163.398L149.132 243.954C147.462 248.014 142.817 249.952 138.757 248.282C134.697 246.612 132.759 241.967 134.429 237.907L167.558 157.351C169.228 153.291 173.873 151.354 177.933 153.023C181.993 154.693 183.931 159.338 182.261 163.398ZM237.5 202L208.829 168.158C207.669 166.789 205.966 166 204.171 166C198.973 166 196.154 172.083 199.514 176.05L221.5 202L199.709 227.006C196.308 230.909 199.08 237 204.256 237C205.999 237 207.658 236.246 208.803 234.931L237.5 202Z" fill="#141414"/>
<path d="M275 113C275 115.761 272.761 118 270 118H46C43.2386 118 41 115.761 41 113V84C41 81.2386 43.2386 79 46 79H244C261.121 79 275 92.8792 275 110V113Z" fill="#141414"/>
</svg>
