<svg width="352" height="350" viewBox="0 0 352 350" fill="none" xmlns="http://www.w3.org/2000/svg">
<rect width="352" height="350" rx="25" fill="#FF6D39"/>
<path d="M175.397 258.2C221.045 258.2 258.05 221.195 258.05 175.547C258.05 129.9 221.045 92.8947 175.397 92.8947C129.749 92.8947 92.7445 129.9 92.7445 175.547C92.7445 221.195 129.749 258.2 175.397 258.2ZM218.639 176.095C218.639 199.674 199.524 218.789 175.945 218.789C152.365 218.789 133.25 199.674 133.25 176.095C133.25 152.515 152.365 133.4 175.945 133.4C199.524 133.4 218.639 152.515 218.639 176.095Z" fill="#141414"/>
<path d="M151.93 74.6463C152.536 72.4899 154.503 71 156.743 71H192.957C195.197 71 197.164 72.4899 197.77 74.6463L204.81 99.6779C205.707 102.867 203.31 106.032 199.997 106.032H149.703C146.389 106.032 143.992 102.867 144.889 99.6779L151.93 74.6463Z" fill="#141414"/>
<path d="M151.93 275.354C152.536 277.51 154.503 279 156.743 279H192.957C195.197 279 197.164 277.51 197.77 275.354L204.81 250.322C205.707 247.133 203.31 243.968 199.997 243.968H149.703C146.389 243.968 143.992 247.133 144.889 250.322L151.93 275.354Z" fill="#141414"/>
<path d="M273.476 145.328C275.04 143.724 275.347 141.276 274.227 139.336L256.12 107.974C255 106.034 252.726 105.076 250.555 105.629L225.357 112.048C222.147 112.866 220.605 116.523 222.262 119.393L247.409 162.949C249.065 165.818 253.004 166.312 255.318 163.941L273.476 145.328Z" fill="#141414"/>
<path d="M78.4211 145.328C76.8569 143.724 76.5499 141.276 77.67 139.336L95.777 107.974C96.897 106.034 99.1706 105.076 101.341 105.629L126.539 112.048C129.75 112.866 131.292 116.523 129.635 119.393L104.488 162.949C102.831 165.818 98.8927 166.312 96.579 163.941L78.4211 145.328Z" fill="#141414"/>
<path d="M78.4211 204.906C76.8569 206.509 76.5499 208.957 77.67 210.897L95.777 242.259C96.897 244.199 99.1706 245.158 101.341 244.605L126.539 238.186C129.75 237.368 131.292 233.71 129.635 230.84L104.488 187.284C102.831 184.415 98.8927 183.921 96.579 186.293L78.4211 204.906Z" fill="#141414"/>
<path d="M273.476 204.906C275.04 206.509 275.347 208.957 274.227 210.897L256.12 242.259C255 244.199 252.726 245.158 250.555 244.605L225.357 238.186C222.147 237.368 220.605 233.71 222.262 230.84L247.409 187.284C249.065 184.415 253.004 183.921 255.318 186.293L273.476 204.906Z" fill="#141414"/>
</svg>
