<svg width="35" height="35" viewBox="0 0 35 35" fill="none" xmlns="http://www.w3.org/2000/svg">
<path d="M13 18.5C13 19.3284 12.3284 20 11.5 20C10.6716 20 10 19.3284 10 18.5C10 17.6716 10.6716 17 11.5 17C12.3284 17 13 17.6716 13 18.5Z" fill="#FF6A25"/>
<path d="M15.5 20C15.5 20.5523 15.0523 21 14.5 21C13.9477 21 13.5 20.5523 13.5 20C13.5 19.4477 13.9477 19 14.5 19C15.0523 19 15.5 19.4477 15.5 20Z" fill="#FF6A25"/>
<path d="M14 16.5C14 16.7761 13.7761 17 13.5 17C13.2239 17 13 16.7761 13 16.5C13 16.2239 13.2239 16 13.5 16C13.7761 16 14 16.2239 14 16.5Z" fill="#FF6A25"/>
<path fill-rule="evenodd" clip-rule="evenodd" d="M0 4C0 1.79086 1.79086 0 4 0H31C33.2091 0 35 1.79086 35 4V31C35 33.2091 33.2091 35 31 35H4C1.79086 35 0 33.2091 0 31V4ZM17.5 30C23.8513 30 29 25.7467 29 20.5C29 15.9495 25.127 12.1463 19.9556 11.2171C19.7351 10.5239 18.7195 10 17.5 10C16.2805 10 15.2649 10.5239 15.0444 11.2171C9.87297 12.1463 6 15.9495 6 20.5C6 25.7467 11.1487 30 17.5 30ZM11.5 20C12.3284 20 13 19.3284 13 18.5C13 17.6716 12.3284 17 11.5 17C10.6716 17 10 17.6716 10 18.5C10 19.3284 10.6716 20 11.5 20ZM14.5 21C15.0523 21 15.5 20.5523 15.5 20C15.5 19.4477 15.0523 19 14.5 19C13.9477 19 13.5 19.4477 13.5 20C13.5 20.5523 13.9477 21 14.5 21ZM13.5 17C13.7761 17 14 16.7761 14 16.5C14 16.2239 13.7761 16 13.5 16C13.2239 16 13 16.2239 13 16.5C13 16.7761 13.2239 17 13.5 17ZM16.8296 10.0018C15.825 9.86611 13 8 14.1873 5C17.5 5.5 16.867 9.31561 16.8296 10.0018Z" fill="#FF6A25"/>
</svg>
