<svg width="1920" height="1080" viewBox="0 0 1920 1080" fill="none" xmlns="http://www.w3.org/2000/svg">
<g clip-path="url(#clip0_206_1025)">
<rect width="1920" height="1080" fill="#141414"/>
<circle opacity="0.2" cx="60" cy="60" r="10" fill="black"/>
<circle opacity="0.2" cx="180" cy="60" r="10" fill="black"/>
<circle opacity="0.2" cx="300" cy="60" r="10" fill="black"/>
<circle opacity="0.2" cx="420" cy="60" r="10" fill="black"/>
<circle opacity="0.2" cx="540" cy="60" r="10" fill="black"/>
<circle opacity="0.2" cx="660" cy="60" r="10" fill="black"/>
<circle opacity="0.2" cx="780" cy="60" r="10" fill="black"/>
<circle opacity="0.2" cx="900" cy="60" r="10" fill="black"/>
<circle opacity="0.2" cx="1020" cy="60" r="10" fill="black"/>
<circle opacity="0.2" cx="1140" cy="60" r="10" fill="black"/>
<circle opacity="0.2" cx="1260" cy="60" r="10" fill="black"/>
<circle opacity="0.2" cx="1380" cy="60" r="10" fill="black"/>
<circle opacity="0.2" cx="1500" cy="60" r="10" fill="black"/>
<circle opacity="0.2" cx="1620" cy="60" r="10" fill="black"/>
<circle opacity="0.2" cx="1740" cy="60" r="10" fill="black"/>
<circle opacity="0.2" cx="1860" cy="60" r="10" fill="black"/>
<circle opacity="0.2" cx="60" cy="540" r="10" fill="black"/>
<circle opacity="0.2" cx="180" cy="540" r="10" fill="black"/>
<circle opacity="0.2" cx="300" cy="540" r="10" fill="black"/>
<circle opacity="0.2" cx="420" cy="540" r="10" fill="black"/>
<circle opacity="0.2" cx="540" cy="540" r="10" fill="black"/>
<circle opacity="0.2" cx="660" cy="540" r="10" fill="black"/>
<circle opacity="0.2" cx="780" cy="540" r="10" fill="black"/>
<circle opacity="0.2" cx="900" cy="540" r="10" fill="black"/>
<circle opacity="0.2" cx="1020" cy="540" r="10" fill="black"/>
<circle opacity="0.2" cx="1140" cy="540" r="10" fill="black"/>
<circle opacity="0.2" cx="1260" cy="540" r="10" fill="black"/>
<circle opacity="0.2" cx="1380" cy="540" r="10" fill="black"/>
<circle opacity="0.2" cx="1500" cy="540" r="10" fill="black"/>
<circle opacity="0.2" cx="1620" cy="540" r="10" fill="black"/>
<circle opacity="0.2" cx="1740" cy="540" r="10" fill="black"/>
<circle opacity="0.2" cx="1860" cy="540" r="10" fill="black"/>
<circle opacity="0.2" cx="60" cy="300" r="10" fill="black"/>
<circle opacity="0.2" cx="180" cy="300" r="10" fill="black"/>
<circle opacity="0.2" cx="300" cy="300" r="10" fill="black"/>
<circle opacity="0.2" cx="420" cy="300" r="10" fill="black"/>
<circle opacity="0.2" cx="540" cy="300" r="10" fill="black"/>
<circle opacity="0.2" cx="660" cy="300" r="10" fill="black"/>
<circle opacity="0.2" cx="780" cy="300" r="10" fill="black"/>
<circle opacity="0.2" cx="900" cy="300" r="10" fill="black"/>
<circle opacity="0.2" cx="1020" cy="300" r="10" fill="black"/>
<circle opacity="0.2" cx="1140" cy="300" r="10" fill="black"/>
<circle opacity="0.2" cx="1260" cy="300" r="10" fill="black"/>
<circle opacity="0.2" cx="1380" cy="300" r="10" fill="black"/>
<circle opacity="0.2" cx="1500" cy="300" r="10" fill="black"/>
<circle opacity="0.2" cx="1620" cy="300" r="10" fill="black"/>
<circle opacity="0.2" cx="1740" cy="300" r="10" fill="black"/>
<circle opacity="0.2" cx="1860" cy="300" r="10" fill="black"/>
<circle opacity="0.2" cx="60" cy="780" r="10" fill="black"/>
<circle opacity="0.2" cx="180" cy="780" r="10" fill="black"/>
<circle opacity="0.2" cx="300" cy="780" r="10" fill="black"/>
<circle opacity="0.2" cx="420" cy="780" r="10" fill="black"/>
<circle opacity="0.2" cx="540" cy="780" r="10" fill="black"/>
<circle opacity="0.2" cx="660" cy="780" r="10" fill="black"/>
<circle opacity="0.2" cx="780" cy="780" r="10" fill="black"/>
<circle opacity="0.2" cx="900" cy="780" r="10" fill="black"/>
<circle opacity="0.2" cx="1020" cy="780" r="10" fill="black"/>
<circle opacity="0.2" cx="1140" cy="780" r="10" fill="black"/>
<circle opacity="0.2" cx="1260" cy="780" r="10" fill="black"/>
<circle opacity="0.2" cx="1380" cy="780" r="10" fill="black"/>
<circle opacity="0.2" cx="1500" cy="780" r="10" fill="black"/>
<circle opacity="0.2" cx="1620" cy="780" r="10" fill="black"/>
<circle opacity="0.2" cx="1740" cy="780" r="10" fill="black"/>
<circle opacity="0.2" cx="1860" cy="780" r="10" fill="black"/>
<circle opacity="0.2" cx="60" cy="1020" r="10" fill="black"/>
<circle opacity="0.2" cx="180" cy="1020" r="10" fill="black"/>
<circle opacity="0.2" cx="300" cy="1020" r="10" fill="black"/>
<circle opacity="0.2" cx="420" cy="1020" r="10" fill="black"/>
<circle opacity="0.2" cx="540" cy="1020" r="10" fill="black"/>
<circle opacity="0.2" cx="660" cy="1020" r="10" fill="black"/>
<circle opacity="0.2" cx="780" cy="1020" r="10" fill="black"/>
<circle opacity="0.2" cx="900" cy="1020" r="10" fill="black"/>
<circle opacity="0.2" cx="1020" cy="1020" r="10" fill="black"/>
<circle opacity="0.2" cx="1140" cy="1020" r="10" fill="black"/>
<circle opacity="0.2" cx="1260" cy="1020" r="10" fill="black"/>
<circle opacity="0.2" cx="1380" cy="1020" r="10" fill="black"/>
<circle opacity="0.2" cx="1500" cy="1020" r="10" fill="black"/>
<circle opacity="0.2" cx="1620" cy="1020" r="10" fill="black"/>
<circle opacity="0.2" cx="1740" cy="1020" r="10" fill="black"/>
<circle opacity="0.2" cx="1860" cy="1020" r="10" fill="black"/>
<circle opacity="0.2" cx="10" cy="180" r="10" fill="black"/>
<circle opacity="0.2" cx="130" cy="180" r="10" fill="black"/>
<circle opacity="0.2" cx="250" cy="180" r="10" fill="black"/>
<circle opacity="0.2" cx="370" cy="180" r="10" fill="black"/>
<circle opacity="0.2" cx="490" cy="180" r="10" fill="black"/>
<circle opacity="0.2" cx="610" cy="180" r="10" fill="black"/>
<circle opacity="0.2" cx="730" cy="180" r="10" fill="black"/>
<circle opacity="0.2" cx="850" cy="180" r="10" fill="black"/>
<circle opacity="0.2" cx="970" cy="180" r="10" fill="black"/>
<circle opacity="0.2" cx="1090" cy="180" r="10" fill="black"/>
<circle opacity="0.2" cx="1210" cy="180" r="10" fill="black"/>
<circle opacity="0.2" cx="1330" cy="180" r="10" fill="black"/>
<circle opacity="0.2" cx="1450" cy="180" r="10" fill="black"/>
<circle opacity="0.2" cx="1570" cy="180" r="10" fill="black"/>
<circle opacity="0.2" cx="1690" cy="180" r="10" fill="black"/>
<circle opacity="0.2" cx="1810" cy="180" r="10" fill="black"/>
<circle opacity="0.2" cx="10" cy="660" r="10" fill="black"/>
<circle opacity="0.2" cx="130" cy="660" r="10" fill="black"/>
<circle opacity="0.2" cx="250" cy="660" r="10" fill="black"/>
<circle opacity="0.2" cx="370" cy="660" r="10" fill="black"/>
<circle opacity="0.2" cx="490" cy="660" r="10" fill="black"/>
<circle opacity="0.2" cx="610" cy="660" r="10" fill="black"/>
<circle opacity="0.2" cx="730" cy="660" r="10" fill="black"/>
<circle opacity="0.2" cx="850" cy="660" r="10" fill="black"/>
<circle opacity="0.2" cx="970" cy="660" r="10" fill="black"/>
<circle opacity="0.2" cx="1090" cy="660" r="10" fill="black"/>
<circle opacity="0.2" cx="1210" cy="660" r="10" fill="black"/>
<circle opacity="0.2" cx="1330" cy="660" r="10" fill="black"/>
<circle opacity="0.2" cx="1450" cy="660" r="10" fill="black"/>
<circle opacity="0.2" cx="1570" cy="660" r="10" fill="black"/>
<circle opacity="0.2" cx="1690" cy="660" r="10" fill="black"/>
<circle opacity="0.2" cx="1810" cy="660" r="10" fill="black"/>
<circle opacity="0.2" cx="10" cy="420" r="10" fill="black"/>
<circle opacity="0.2" cx="130" cy="420" r="10" fill="black"/>
<circle opacity="0.2" cx="250" cy="420" r="10" fill="black"/>
<circle opacity="0.2" cx="370" cy="420" r="10" fill="black"/>
<circle opacity="0.2" cx="490" cy="420" r="10" fill="black"/>
<circle opacity="0.2" cx="610" cy="420" r="10" fill="black"/>
<circle opacity="0.2" cx="730" cy="420" r="10" fill="black"/>
<circle opacity="0.2" cx="850" cy="420" r="10" fill="black"/>
<circle opacity="0.2" cx="970" cy="420" r="10" fill="black"/>
<circle opacity="0.2" cx="1090" cy="420" r="10" fill="black"/>
<circle opacity="0.2" cx="1210" cy="420" r="10" fill="black"/>
<circle opacity="0.2" cx="1330" cy="420" r="10" fill="black"/>
<circle opacity="0.2" cx="1450" cy="420" r="10" fill="black"/>
<circle opacity="0.2" cx="1570" cy="420" r="10" fill="black"/>
<circle opacity="0.2" cx="1690" cy="420" r="10" fill="black"/>
<circle opacity="0.2" cx="1810" cy="420" r="10" fill="black"/>
<circle opacity="0.2" cx="10" cy="900" r="10" fill="black"/>
<circle opacity="0.2" cx="130" cy="900" r="10" fill="black"/>
<circle opacity="0.2" cx="250" cy="900" r="10" fill="black"/>
<circle opacity="0.2" cx="370" cy="900" r="10" fill="black"/>
<circle opacity="0.2" cx="490" cy="900" r="10" fill="black"/>
<circle opacity="0.2" cx="610" cy="900" r="10" fill="black"/>
<circle opacity="0.2" cx="730" cy="900" r="10" fill="black"/>
<circle opacity="0.2" cx="850" cy="900" r="10" fill="black"/>
<circle opacity="0.2" cx="970" cy="900" r="10" fill="black"/>
<circle opacity="0.2" cx="1090" cy="900" r="10" fill="black"/>
<circle opacity="0.2" cx="1210" cy="900" r="10" fill="black"/>
<circle opacity="0.2" cx="1330" cy="900" r="10" fill="black"/>
<circle opacity="0.2" cx="1450" cy="900" r="10" fill="black"/>
<circle opacity="0.2" cx="1570" cy="900" r="10" fill="black"/>
<circle opacity="0.2" cx="1690" cy="900" r="10" fill="black"/>
<circle opacity="0.2" cx="1810" cy="900" r="10" fill="black"/>
</g>
<defs>
<clipPath id="clip0_206_1025">
<rect width="1920" height="1080" fill="white"/>
</clipPath>
</defs>
</svg>
