<svg width="42" height="30" viewBox="0 0 42 30" fill="none" xmlns="http://www.w3.org/2000/svg">
<path d="M13.387 6.83226C11.5039 7.86637 10.3056 9.84842 10.3056 12.3475V12.4337C15.0133 12.8646 18.1803 15.9669 18.1803 20.7928C18.1803 26.0495 14.4997 29.3242 9.10725 29.3242C3.71476 29.3242 0.0341797 24.6707 0.0341797 19.931V19.1554C0.0341797 10.0208 4.22833 3.38522 10.22 1.05846C11.6751 0.541407 13.2158 0.196702 14.5853 0.369052C16.0404 0.541407 17.7523 1.31699 17.5812 3.64374C17.4956 5.02256 16.7252 5.88432 15.1845 6.22903C14.5853 6.40138 14.0718 6.48755 13.387 6.83226ZM36.2409 6.83226C34.3578 7.86637 33.1594 9.84842 33.1594 12.3475V12.4337C37.8672 12.8646 41.0342 15.9669 41.0342 20.7928C41.0342 26.0495 37.3536 29.3242 31.9611 29.3242C26.5686 29.3242 22.888 24.6707 22.888 19.931V19.1554C22.888 10.0208 27.0822 3.38522 33.0738 1.05846C34.529 0.541407 36.0697 0.196702 37.4392 0.369052C38.8943 0.541407 40.6062 1.31699 40.435 3.64374C40.3494 5.02256 39.5791 5.88432 38.0384 6.22903C37.4392 6.40138 36.9256 6.48755 36.2409 6.83226Z" fill="#4F4F4F"/>
</svg>
